<svg xmlns="http://www.w3.org/2000/svg" viewBox="735 110 465 545">
  <defs>
    <linearGradient id="bw" x1="760" y1="140" x2="1180" y2="620" gradientUnits="userSpaceOnUse">
      <stop offset="0" stop-color="#5391c2"></stop>
      <stop offset="1" stop-color="#165080"></stop>
    </linearGradient>
  </defs>
  <path fill="url(#bw)" d="M967.2,557.9c-31.1,0-61.2-6.1-89.6-18.1-27.4-11.6-52-28.2-73.2-49.3-21.1-21.1-37.7-45.8-49.3-73.2-12-28.4-18.1-58.6-18.1-89.6s6.1-61.2,18.1-89.6c11.6-27.4,28.2-52,49.3-73.2,21.1-21.1,45.8-37.7,73.2-49.3,28.4-12,58.6-18.1,89.6-18.1s61.2,6.1,89.6,18.1c27.4,11.6,52,28.2,73.2,49.3,21.1,21.1,37.7,45.8,49.3,73.2,12,28.4,18.1,58.6,18.1,89.6s-6.1,61.2-18.1,89.6c-11.6,27.4-28.2,52-49.3,73.2-21.1,21.1-45.8,37.7-73.2,49.3-28.4,12-58.6,18.1-89.6,18.1ZM967.2,128.5c-26.9,0-53,5.3-77.5,15.6-23.7,10-45,24.4-63.3,42.7-18.3,18.3-32.7,39.6-42.7,63.3-10.4,24.5-15.6,50.6-15.6,77.5s5.3,53,15.6,77.5c10,23.7,24.4,45,42.7,63.3,18.3,18.3,39.6,32.7,63.3,42.7,24.5,10.4,50.6,15.6,77.5,15.6s53-5.3,77.5-15.6c23.7-10,45-24.4,63.3-42.7,18.3-18.3,32.7-39.6,42.7-63.3,10.4-24.5,15.6-50.6,15.6-77.5s-5.3-53-15.6-77.5c-10-23.7-24.4-45-42.7-63.3-18.3-18.3-39.6-32.7-63.3-42.7-24.5-10.4-50.6-15.6-77.5-15.6Z"></path>
  <path fill="url(#bw)" d="M967.2,475.7c-20,0-39.4-3.9-57.7-11.6-17.6-7.5-33.5-18.1-47.1-31.7-13.6-13.6-24.3-29.4-31.7-47.1-7.7-18.3-11.6-37.7-11.6-57.7s3.9-39.4,11.6-57.7c7.5-17.6,18.1-33.5,31.7-47.1,13.6-13.6,29.4-24.3,47.1-31.7,18.3-7.7,37.7-11.6,57.7-11.6s39.4,3.9,57.7,11.6c17.6,7.5,33.5,18.1,47.1,31.7,13.6,13.6,24.3,29.4,31.7,47.1,7.7,18.3,11.6,37.7,11.6,57.7s-3.9,39.4-11.6,57.7c-7.5,17.6-18.1,33.5-31.7,47.1-13.6,13.6-29.4,24.3-47.1,31.7-18.3,7.7-37.7,11.6-57.7,11.6ZM967.2,210.7c-31.2,0-60.6,12.2-82.7,34.3-22.1,22.1-34.3,51.5-34.3,82.7s12.2,60.6,34.3,82.7c22.1,22.1,51.5,34.3,82.7,34.3s60.6-12.2,82.7-34.3c22.1-22.1,34.3-51.5,34.3-82.7s-12.2-60.6-34.3-82.7c-22.1-22.1-51.5-34.3-82.7-34.3Z"></path>
  <path fill="#165080" d="M967.2,398.5c-36.4,0-65.9-29.6-65.9-65.9s29.6-65.9,65.9-65.9,65.9,29.6,65.9,65.9-29.6,65.9-65.9,65.9ZM967.2,297.7c-19.2,0-34.8,15.6-34.8,34.8s15.6,34.8,34.8,34.8,34.8-15.6,34.8-34.8-15.6-34.8-34.8-34.8Z"></path>
  <path fill="url(#bw)" d="M1063.5,628.9l-6.2-31.3v-.4c.1,0,0,0,0,0l-43.9-220.4-40-49.2s0,0,0,0c-.1-.2-.3-.4-.5-.5,0,0-.1-.1-.2-.2s0,0-.1-.1c-.4-.4-.9-.8-1.3-1.1,0,0,0,0,0,0-.2-.1-.5-.3-.7-.4,0,0-.2,0-.3-.1-.2,0-.4-.2-.5-.2-.1,0-.3,0-.4-.1-.1,0-.3-.1-.4-.2-.1,0-.3,0-.4-.1-.1,0-.3,0-.4,0-.1,0-.3,0-.4,0-.1,0-.3,0-.4,0-.1,0-.3,0-.4,0-.2,0-.3,0-.5,0-.1,0-.2,0-.4,0-.2,0-.4,0-.5,0-.1,0-.2,0-.3,0-.2,0-.4,0-.6,0,0,0-.2,0-.3,0-.2,0-.4,0-.6.1-.1,0-.2,0-.3.1-.2,0-.3.1-.5.2-.1,0-.3.1-.4.2-.1,0-.2.1-.4.2-.2.1-.4.2-.6.4,0,0,0,0-.1,0-.5.3-.9.7-1.3,1.1,0,0,0,0-.1.1s-.1.1-.2.2c-.2.2-.3.3-.5.5,0,0,0,0,0,0l-40,49.2-50.3,252.1c-1,5,2.2,9.8,7.2,10.8.6.1,1.2.2,1.8.2,4.3,0,8.1-3,9-7.4l4-20.1,76.9-25.4,73.6,24.3,4.2,21.2c.9,4.4,4.7,7.4,9,7.4s1.2,0,1.8-.2c5-1,8.2-5.8,7.2-10.8ZM918,475.9l25.7,10.6-30.3,12.5,4.6-23.2ZM966.2,347.9l25.3,31.1-23.7,15.1-25.8-16.4,24.2-29.8ZM1018.6,497.6l-26.9-11.1,22.8-9.4,4.1,20.6ZM1000.5,510l-32.7,11.6-32.7-11.6,32.7-13.5,32.7,13.5ZM967.7,457.7l24.4,8.8-24.4,10.1-24.4-10.1,24.4-8.8ZM994.8,448l13-4.7,2,10.1-15-5.4ZM945.2,430.1l22.5-14.3,22.5,14.3-22.5,8.1-22.5-8.1ZM984.8,405l13.6-8.6,3.9,19.8-17.6-11.2ZM950.6,405l-21.1,13.4,4.8-23.8,16.4,10.4ZM924.7,442.2l15.9,5.7-18.3,6.6,2.5-12.3ZM909.2,520.3l31,10.9-35.7,12.6,4.7-23.5ZM967.7,541l39,13.8-39,12.9-39-12.9,39-13.8ZM995.3,531.2l28.1-9.9,4.3,21.3-32.3-11.4ZM894.9,591.7l5.4-27,38.2,12.6-43.6,14.4ZM996.9,577.3l35.3-11.7,5,25-40.2-13.3Z"></path>
</svg>
