<svg viewBox="0 0 512 512" xmlns="http://www.w3.org/2000/svg"><defs><clipPath id="cB" transform="translate(3,0)"><path d="M374.0,340.0 L378.3,365.6 L363.8,387.2 L357.1,412.3 L335.0,426.2 L318.5,446.5 L292.5,450.3 L269.1,462.3 L243.7,455.4 L217.4,457.0 L197.0,440.5 L172.4,431.4 L160.5,408.2 L141.8,390.0 L140.6,364.1 L131.0,340.0 L140.6,315.9 L141.8,290.0 L160.5,271.8 L172.4,248.6 L197.0,239.5 L217.4,223.0 L243.7,224.6 L269.1,217.7 L292.5,229.7 L318.5,233.5 L335.0,253.8 L357.1,267.7 L363.8,292.8 L378.3,314.4 Z"></path></clipPath><clipPath id="cH" transform="translate(3,0)"><path d="M350.0,184.0 L354.5,206.0 L340.7,223.9 L335.0,245.7 L314.6,255.9 L299.8,273.2 L276.9,273.7 L256.0,283.0 L235.1,273.7 L212.2,273.2 L197.4,255.9 L177.0,245.7 L171.3,223.9 L157.5,206.0 L162.0,184.0 L157.5,162.0 L171.3,144.1 L177.0,122.3 L197.4,112.1 L212.2,94.8 L235.1,94.3 L256.0,85.0 L276.9,94.3 L299.8,94.8 L314.6,112.1 L335.0,122.3 L340.7,144.1 L354.5,162.0 Z"></path></clipPath></defs><ellipse cx="276" cy="466" rx="150" ry="24" fill="#1A1611"></ellipse><g transform="translate(3,0)" stroke="#1A1611" stroke-width="14" stroke-linejoin="round" stroke-linecap="round"><path d="M334 414 C404 442 470 416 498 340 C470 372 396 398 320 384 Z" fill="#7A5226"></path><g stroke="#F2ECDD" stroke-width="5"><line x1="366" y1="404" x2="378" y2="382"></line><line x1="402" y1="406" x2="414" y2="384"></line><line x1="438" y1="398" x2="448" y2="376"></line><line x1="468" y1="384" x2="476" y2="364"></line></g></g><g stroke="#1A1611" stroke-width="14" stroke-linejoin="round" stroke-linecap="round"><ellipse cx="201" cy="442" rx="44" ry="22" fill="#B07A3C"></ellipse><ellipse cx="319" cy="442" rx="44" ry="22" fill="#B07A3C"></ellipse></g><g transform="translate(3,0)"><path d="M374.0,340.0 L378.3,365.6 L363.8,387.2 L357.1,412.3 L335.0,426.2 L318.5,446.5 L292.5,450.3 L269.1,462.3 L243.7,455.4 L217.4,457.0 L197.0,440.5 L172.4,431.4 L160.5,408.2 L141.8,390.0 L140.6,364.1 L131.0,340.0 L140.6,315.9 L141.8,290.0 L160.5,271.8 L172.4,248.6 L197.0,239.5 L217.4,223.0 L243.7,224.6 L269.1,217.7 L292.5,229.7 L318.5,233.5 L335.0,253.8 L357.1,267.7 L363.8,292.8 L378.3,314.4 Z" fill="#B07A3C"></path><g clip-path="url(#cB)"><polygon points="136,210 250,210 150,470 110,470" fill="#7A5226"></polygon><polygon points="300,214 374,250 374,330 320,300" fill="#C99A5A"></polygon></g><path d="M374.0,340.0 L378.3,365.6 L363.8,387.2 L357.1,412.3 L335.0,426.2 L318.5,446.5 L292.5,450.3 L269.1,462.3 L243.7,455.4 L217.4,457.0 L197.0,440.5 L172.4,431.4 L160.5,408.2 L141.8,390.0 L140.6,364.1 L131.0,340.0 L140.6,315.9 L141.8,290.0 L160.5,271.8 L172.4,248.6 L197.0,239.5 L217.4,223.0 L243.7,224.6 L269.1,217.7 L292.5,229.7 L318.5,233.5 L335.0,253.8 L357.1,267.7 L363.8,292.8 L378.3,314.4 Z" fill="none" stroke="#1A1611" stroke-width="14" stroke-linejoin="round"></path><path d="M332.0,360.0 L335.2,383.8 L321.8,403.0 L314.0,425.1 L294.0,434.5 L277.2,448.9 L256.0,446.0 L234.8,448.9 L218.0,434.5 L198.0,425.1 L190.2,403.0 L176.8,383.8 L180.0,360.0 L176.8,336.2 L190.2,317.0 L198.0,294.9 L218.0,285.5 L234.8,271.1 L256.0,274.0 L277.2,271.1 L294.0,285.5 L314.0,294.9 L321.8,317.0 L335.2,336.2 Z" fill="#F2ECDD" stroke="#1A1611" stroke-width="9" stroke-linejoin="round"></path><g stroke="#1A1611" stroke-width="6" fill="none" stroke-linecap="round"><path d="M232 292 q24 22 48 0"></path><path d="M244 314 q12 14 24 0"></path></g><line x1="154" y1="392" x2="150" y2="296" stroke="#1A1611" stroke-width="16" stroke-linecap="round"></line><line x1="154" y1="392" x2="150" y2="296" stroke="#7A5226" stroke-width="8" stroke-linecap="round"></line><path d="M148 296 Q84 278 78 336 Q108 294 152 304 Z" fill="#9AA1A8" stroke="#1A1611" stroke-width="10" stroke-linejoin="round"></path><ellipse cx="154" cy="392" rx="31" ry="26" fill="#B07A3C" stroke="#1A1611" stroke-width="13"></ellipse><g stroke="#1A1611" stroke-width="6"><line x1="142" y1="404" x2="142" y2="388"></line><line x1="154" y1="406" x2="154" y2="388"></line><line x1="166" y1="404" x2="166" y2="388"></line></g><line x1="358" y1="392" x2="362" y2="300" stroke="#1A1611" stroke-width="16" stroke-linecap="round"></line><line x1="358" y1="392" x2="362" y2="300" stroke="#7A5226" stroke-width="8" stroke-linecap="round"></line><rect x="334" y="282" width="58" height="30" rx="5" fill="#9AA1A8" stroke="#1A1611" stroke-width="9"></rect><ellipse cx="358" cy="392" rx="31" ry="26" fill="#B07A3C" stroke="#1A1611" stroke-width="13"></ellipse><g stroke="#1A1611" stroke-width="6"><line x1="346" y1="404" x2="346" y2="388"></line><line x1="358" y1="406" x2="358" y2="388"></line><line x1="370" y1="404" x2="370" y2="388"></line></g></g><g transform="translate(3,0)"><g stroke="#1A1611" stroke-width="12" stroke-linejoin="round"><circle cx="206" cy="116" r="19" fill="#B07A3C"></circle><circle cx="306" cy="116" r="19" fill="#B07A3C"></circle></g><path d="M350.0,184.0 L354.5,206.0 L340.7,223.9 L335.0,245.7 L314.6,255.9 L299.8,273.2 L276.9,273.7 L256.0,283.0 L235.1,273.7 L212.2,273.2 L197.4,255.9 L177.0,245.7 L171.3,223.9 L157.5,206.0 L162.0,184.0 L157.5,162.0 L171.3,144.1 L177.0,122.3 L197.4,112.1 L212.2,94.8 L235.1,94.3 L256.0,85.0 L276.9,94.3 L299.8,94.8 L314.6,112.1 L335.0,122.3 L340.7,144.1 L354.5,162.0 Z" fill="#B07A3C"></path><g clip-path="url(#cH)"><polygon points="160,98 250,98 196,280 150,280" fill="#7A5226"></polygon><polygon points="300,100 356,140 352,210 300,170" fill="#C99A5A"></polygon></g><path d="M350.0,184.0 L354.5,206.0 L340.7,223.9 L335.0,245.7 L314.6,255.9 L299.8,273.2 L276.9,273.7 L256.0,283.0 L235.1,273.7 L212.2,273.2 L197.4,255.9 L177.0,245.7 L171.3,223.9 L157.5,206.0 L162.0,184.0 L157.5,162.0 L171.3,144.1 L177.0,122.3 L197.4,112.1 L212.2,94.8 L235.1,94.3 L256.0,85.0 L276.9,94.3 L299.8,94.8 L314.6,112.1 L335.0,122.3 L340.7,144.1 L354.5,162.0 Z" fill="none" stroke="#1A1611" stroke-width="14" stroke-linejoin="round"></path><path d="M174 162 q82 -34 164 0 l0 16 q-82 -30 -164 0 Z" fill="#7A5226"></path><g stroke="#1A1611" stroke-width="14" fill="none" stroke-linecap="round"><line x1="186" y1="138" x2="244" y2="164"></line><line x1="268" y1="164" x2="326" y2="138"></line></g><circle cx="216" cy="182" r="28" fill="#F2ECDD" stroke="#1A1611" stroke-width="13"></circle><circle cx="216" cy="188" r="13" fill="#1A1611"></circle><circle cx="212" cy="183" r="4" fill="#F2ECDD"></circle><path d="M188 181 a28 28 0 0 1 56 0 z" fill="#B07A3C"></path><line x1="188" y1="182" x2="244" y2="182" stroke="#1A1611" stroke-width="11" stroke-linecap="round"></line><circle cx="296" cy="182" r="28" fill="#F2ECDD" stroke="#1A1611" stroke-width="13"></circle><circle cx="296" cy="188" r="13" fill="#1A1611"></circle><circle cx="292" cy="183" r="4" fill="#F2ECDD"></circle><path d="M268 181 a28 28 0 0 1 56 0 z" fill="#B07A3C"></path><line x1="268" y1="182" x2="324" y2="182" stroke="#1A1611" stroke-width="11" stroke-linecap="round"></line><path d="M330.0,238.0 L331.8,255.2 L318.3,268.3 L307.7,284.1 L286.7,288.9 L267.2,298.4 L245.5,293.4 L223.2,293.5 L207.5,280.3 L189.5,271.0 L185.0,253.8 L177.0,238.0 L185.0,222.2 L189.5,205.0 L207.5,195.7 L223.2,182.5 L245.5,182.6 L267.2,177.6 L286.7,187.1 L307.7,191.9 L318.3,207.7 L331.8,220.8 Z" fill="#F2ECDD" stroke="#1A1611" stroke-width="12" stroke-linejoin="round"></path><path d="M232 208 h48 l-10 20 a18 18 0 0 1 -28 0 Z" fill="#1A1611"></path><ellipse cx="246" cy="212" rx="5" ry="3.5" fill="#F2ECDD"></ellipse><path d="M256 226 v10 M214 240 q42 -14 84 0" fill="none" stroke="#1A1611" stroke-width="8" stroke-linecap="round"></path><g stroke="#1A1611" stroke-width="9" stroke-linejoin="round"><path d="M232 244 h28 v42 a14 14 0 0 1 -28 0 z" fill="#D9A93C"></path><path d="M252 244 h28 v42 a14 14 0 0 1 -28 0 z" fill="#D9A93C"></path></g><rect x="238" y="250" width="6" height="30" rx="3" fill="#F2ECDD" opacity="0.6"></rect><rect x="258" y="250" width="6" height="30" rx="3" fill="#F2ECDD" opacity="0.6"></rect><g stroke="#1A1611" stroke-width="7" fill="none" stroke-linecap="round"><line x1="200" y1="222" x2="130" y2="202"></line><line x1="200" y1="234" x2="128" y2="234"></line><line x1="202" y1="246" x2="134" y2="264"></line><line x1="312" y1="222" x2="382" y2="202"></line><line x1="312" y1="234" x2="384" y2="234"></line><line x1="310" y1="246" x2="378" y2="264"></line></g><g stroke="#1A1611" stroke-width="13" stroke-linejoin="round"><path d="M166 126 Q172 72 262 70 Q360 74 352 112 Q352 134 296 138 Q216 144 166 126 Z" fill="#1E6499"></path><path d="M170 124 q92 -30 178 -4" fill="none" stroke="#165080" stroke-width="7"></path><circle cx="262" cy="66" r="10" fill="#1E6499"></circle></g><polygon points="316.0,93.0 319.2,101.6 328.4,102.0 321.2,107.7 323.6,116.5 316.0,111.5 308.4,116.5 310.8,107.7 303.6,102.0 312.8,101.6" fill="#D9A93C" stroke="#1A1611" stroke-width="6" stroke-linejoin="round"></polygon></g><path d="M378.0 110.0 Q375.6 128.8 402.5 130.6 Q396.1 104.3 378.0 110.0 ZM378.0 110.0 Q359.2 107.6 357.4 134.5 Q383.7 128.1 378.0 110.0 ZM378.0 110.0 Q380.4 91.2 353.5 89.4 Q359.9 115.7 378.0 110.0 ZM378.0 110.0 Q396.8 112.4 398.6 85.5 Q372.3 91.9 378.0 110.0 Z" fill="#CC2E1E" stroke="#1A1611" stroke-width="6" stroke-linejoin="round"></path><circle cx="378" cy="110" r="5.12" fill="#1A1611"></circle></svg>