<svg viewBox="0 0 512 512" xmlns="http://www.w3.org/2000/svg">
  <polygon points="451.1,347.0 345.0,453.1 195.0,453.1 88.9,347.0 88.9,197.0 195.0,90.9 345.0,90.9 451.1,197.0" fill="#1A1611"></polygon>
  <polygon points="437.1,331.0 331.0,437.1 181.0,437.1 74.9,331.0 74.9,181.0 181.0,74.9 331.0,74.9 437.1,181.0" fill="#1A1611"></polygon>
  <polygon points="422.3,324.9 324.9,422.3 187.1,422.3 89.7,324.9 89.7,187.1 187.1,89.7 324.9,89.7 422.3,187.1" fill="#F2ECDD"></polygon>
  <polygon points="413.1,321.1 321.1,413.1 190.9,413.1 98.9,321.1 98.9,190.9 190.9,98.9 321.1,98.9 413.1,190.9" fill="#CC2E1E"></polygon>
  
  <path d="M196 268 H300 V312 A52 52 0 0 1 196 312 Z" fill="#1A1611"></path>
  <path d="M300 276 H326 A26 26 0 0 1 326 328 H300" fill="none" stroke="#1A1611" stroke-width="18"></path>
  <rect x="196" y="330" width="104" height="20" rx="6" fill="#1A1611"></rect>
  <path d="M226 168 C214 188 246 200 234 224" fill="none" stroke="#1A1611" stroke-width="15" stroke-linecap="round"></path>
  <path d="M276 168 C264 188 296 200 284 224" fill="none" stroke="#1A1611" stroke-width="15" stroke-linecap="round"></path>
</svg>