<svg viewBox="0 0 512 512" xmlns="http://www.w3.org/2000/svg">
  <polygon points="451.1,347.0 345.0,453.1 195.0,453.1 88.9,347.0 88.9,197.0 195.0,90.9 345.0,90.9 451.1,197.0" fill="#1A1611"></polygon>
  <polygon points="437.1,331.0 331.0,437.1 181.0,437.1 74.9,331.0 74.9,181.0 181.0,74.9 331.0,74.9 437.1,181.0" fill="#1A1611"></polygon>
  <polygon points="422.3,324.9 324.9,422.3 187.1,422.3 89.7,324.9 89.7,187.1 187.1,89.7 324.9,89.7 422.3,187.1" fill="#F2ECDD"></polygon>
  <polygon points="413.1,321.1 321.1,413.1 190.9,413.1 98.9,321.1 98.9,190.9 190.9,98.9 321.1,98.9 413.1,190.9" fill="#CC2E1E"></polygon>
  
  <g transform="rotate(45 256 256)">
    <rect x="232" y="150" width="48" height="150" fill="#1A1611"></rect>
    <rect x="240" y="160" width="32" height="96" fill="#F2ECDD"></rect>
    <rect x="244" y="180" width="24" height="14" fill="#1A1611"></rect>
    <rect x="244" y="206" width="24" height="14" fill="#1A1611"></rect>
    <rect x="222" y="140" width="68" height="16" fill="#1A1611"></rect>
    <rect x="248" y="120" width="16" height="24" fill="#1A1611"></rect>
    <rect x="250" y="300" width="12" height="44" fill="#1A1611"></rect>
    <polygon points="256,372 248,344 264,344" fill="#1A1611"></polygon>
  </g>
</svg>