<svg viewBox="0 0 512 512" xmlns="http://www.w3.org/2000/svg">
  <polygon points="451.1,347.0 345.0,453.1 195.0,453.1 88.9,347.0 88.9,197.0 195.0,90.9 345.0,90.9 451.1,197.0" fill="#1A1611"></polygon>
  <polygon points="437.1,331.0 331.0,437.1 181.0,437.1 74.9,331.0 74.9,181.0 181.0,74.9 331.0,74.9 437.1,181.0" fill="#1A1611"></polygon>
  <polygon points="422.3,324.9 324.9,422.3 187.1,422.3 89.7,324.9 89.7,187.1 187.1,89.7 324.9,89.7 422.3,187.1" fill="#F2ECDD"></polygon>
  <polygon points="413.1,321.1 321.1,413.1 190.9,413.1 98.9,321.1 98.9,190.9 190.9,98.9 321.1,98.9 413.1,190.9" fill="#1E6499"></polygon>
  
  <path d="M256 156 L350 192 V268 C350 326 256 360 256 360 C256 360 162 326 162 268 V192 Z" fill="#1A1611"></path>
  <path d="M256 184 L324 210 V266 C324 308 256 334 256 334 C256 334 188 308 188 266 V210 Z" fill="#F2ECDD"></path>
  <polygon points="296.0,262.0 267.3,273.3 256.0,302.0 244.7,273.3 216.0,262.0 244.7,250.7 256.0,222.0 267.3,250.7" fill="#1A1611"></polygon>
  <path d="M330 176 L356 150 M348 186 L380 182 M330 206 L358 222" stroke="#1A1611" stroke-width="12" stroke-linecap="round"></path>
</svg>