<svg viewBox="0 0 512 512" xmlns="http://www.w3.org/2000/svg">
  <polygon points="451.1,347.0 345.0,453.1 195.0,453.1 88.9,347.0 88.9,197.0 195.0,90.9 345.0,90.9 451.1,197.0" fill="#1A1611"></polygon>
  <polygon points="437.1,331.0 331.0,437.1 181.0,437.1 74.9,331.0 74.9,181.0 181.0,74.9 331.0,74.9 437.1,181.0" fill="#1A1611"></polygon>
  <polygon points="422.3,324.9 324.9,422.3 187.1,422.3 89.7,324.9 89.7,187.1 187.1,89.7 324.9,89.7 422.3,187.1" fill="#F2ECDD"></polygon>
  <polygon points="413.1,321.1 321.1,413.1 190.9,413.1 98.9,321.1 98.9,190.9 190.9,98.9 321.1,98.9 413.1,190.9" fill="#1E9E5A"></polygon>
  
  <g fill="#1A1611">
    <path d="M256 158 A98 98 0 0 1 342 308 L316 293 A68 68 0 0 0 256 188 Z"></path>
    <polygon points="256,140 256,206 292,173"></polygon>
    <path d="M342 308 A98 98 0 0 1 170 308 L196 293 A68 68 0 0 0 316 293 Z" transform="rotate(120 256 256)"></path>
    <polygon points="256,140 256,206 292,173" transform="rotate(120 256 256)"></polygon>
    <path d="M342 308 A98 98 0 0 1 170 308 L196 293 A68 68 0 0 0 316 293 Z" transform="rotate(240 256 256)"></path>
    <polygon points="256,140 256,206 292,173" transform="rotate(240 256 256)"></polygon>
  </g>
</svg>